<svg width="146" height="22" viewBox="0 0 146 22" fill="none" xmlns="http://www.w3.org/2000/svg">
<path d="M134.996 0.351074L11.2281 0.990143C9.90248 0.99656 8.59114 1.26409 7.36891 1.77746C6.14668 2.29082 5.0375 3.03997 4.10471 3.98213C2.22084 5.88491 1.16978 8.45834 1.18274 11.1363C1.19569 13.8143 2.27161 16.3774 4.1738 18.2619C6.07599 20.1463 8.64863 21.1977 11.3258 21.1848L135.109 20.5532C137.74 20.4682 140.234 19.3592 142.06 17.4623C143.886 15.5654 144.899 13.0304 144.885 10.3972C144.87 7.76402 143.828 5.24057 141.981 3.36417C140.135 1.48778 137.628 0.40668 134.996 0.351074V0.351074ZM135.072 17.418L12.4607 18.0495C10.6547 18.0585 8.91907 17.3495 7.63567 16.0784C6.35228 14.8073 5.62623 13.0782 5.61726 11.2716C5.60829 9.46506 6.31713 7.72891 7.58784 6.44512C8.85855 5.16132 10.587 4.43505 12.3931 4.42608L135.004 3.79453C136.81 3.78556 138.546 4.49461 139.829 5.76572C141.112 7.03682 141.838 8.76585 141.847 10.5724C141.856 12.379 141.148 14.1152 139.877 15.399C138.606 16.6828 136.878 17.409 135.072 17.418V17.418Z" fill="url(#paint0_linear_106_42)"/>
<path d="M134.995 0.433983L121.639 0.569315L86.4257 1.20838C79.1426 1.29861 71.2506 1.39635 62.9002 1.38131C54.5497 1.36627 45.7483 1.31365 36.6312 1.27605L22.7714 1.22342H15.6987C13.3312 1.28357 10.926 1.0129 8.64108 1.62942C6.37563 2.26971 4.41362 3.699 3.10919 5.65932C1.83229 7.64558 1.31193 10.0249 1.64309 12.3631C1.97425 14.7012 3.13485 16.8423 4.91307 18.3956C6.69644 19.9315 8.97108 20.7771 11.3243 20.779C30.7536 20.4857 50.1828 20.2451 68.402 20.1098L94.6559 19.9895C103.006 19.9294 110.898 19.9895 118.189 19.9895L128.644 20.0797L133.492 20.1324C134.244 20.1655 134.997 20.1505 135.747 20.0873C136.481 20.0721 137.208 19.9453 137.904 19.7113C139.19 19.3316 140.384 18.691 141.412 17.8296C142.44 16.9681 143.28 15.9042 143.879 14.704C144.811 12.8237 145.117 10.6948 144.753 8.628C144.389 6.56125 143.375 4.66491 141.857 3.21581C140.855 2.28386 139.673 1.56513 138.385 1.10313C137.844 0.945238 137.37 0.772314 136.957 0.674573C136.543 0.576833 136.168 0.591869 135.874 0.561795L134.995 0.433983ZM134.995 0.283616L135.889 0.358799L136.987 0.456537C137.415 0.561796 137.896 0.719682 138.445 0.87757C139.783 1.34963 141.012 2.086 142.06 3.04289C143.461 4.37069 144.463 6.06321 144.954 7.9299C145.527 10.261 145.305 12.7168 144.323 14.907C143.721 16.2004 142.858 17.3552 141.788 18.2985C140.719 19.2418 139.465 19.9532 138.107 20.388C137.382 20.6522 136.622 20.8092 135.852 20.8541C135.068 20.943 134.28 20.9831 133.492 20.9744L128.644 21.0797L118.189 21.2752C110.898 21.388 103.006 21.5082 94.6559 21.5383L68.402 21.6812C50.1828 21.7413 30.7536 21.6812 11.3243 21.606C8.77655 21.5801 6.32374 20.635 4.417 18.9444C2.53331 17.2719 1.31496 14.9766 0.985062 12.4789C0.655165 9.98108 1.2358 7.44802 2.62064 5.34354C4.02772 3.28109 6.13023 1.79447 8.54337 1.15576C10.9034 0.576833 13.3387 0.787353 15.6837 0.712168L22.7564 0.644499L36.6237 0.449017C45.7333 0.313685 54.5347 0.110686 62.8851 0.0730937C71.2356 0.0355013 79.1275 -0.0171252 86.4107 0.00543021L121.631 0.283616H134.995Z" fill="black"/>
<path d="M135.07 17.5006L122.676 17.6435C114.806 17.7262 103.555 18.042 90.0557 18.2675C83.2912 18.3502 76.0005 18.448 68.2589 18.4329C60.5173 18.4179 52.3698 18.3577 43.9291 18.3126C35.4885 18.2675 26.7773 18.2374 17.9233 18.3126C15.6684 18.3126 13.5113 18.4855 11.2339 18.275C10.0731 18.0789 8.97761 17.6026 8.04246 16.8872C7.1073 16.1719 6.36069 15.2392 5.86736 14.1699C5.38296 13.081 5.17657 11.8888 5.26671 10.7004C5.35686 9.51194 5.74072 8.36452 6.38382 7.36119C7.02692 6.35786 7.9091 5.53004 8.95113 4.9521C9.99316 4.37417 11.1624 4.06421 12.3538 4.05009C30.3925 3.76438 48.3561 3.53131 65.2224 3.4035L89.5522 3.29072C97.2788 3.2381 104.584 3.29072 111.349 3.29072L129.771 3.4862L133.747 3.53132C135.021 3.45991 136.297 3.63346 137.505 4.04257C138.544 4.46015 139.471 5.11571 140.212 5.95661C140.952 6.79751 141.484 7.8003 141.767 8.88446C142.203 10.6382 141.933 12.493 141.015 14.0497C140.361 15.2012 139.38 16.1327 138.197 16.7262C137.221 17.2029 136.155 17.4669 135.07 17.5006V17.5006ZM135.07 17.3503C136.135 17.2939 137.176 17.0174 138.129 16.5383C139.268 15.9521 140.205 15.0382 140.82 13.9143C141.294 13.0801 141.581 12.1524 141.66 11.1959C141.739 10.2394 141.608 9.2772 141.276 8.37653C140.945 7.47585 140.421 6.6584 139.741 5.98126C139.061 5.30412 138.242 4.7836 137.34 4.45608C136.187 4.10772 134.977 3.98269 133.777 4.08768L129.801 4.17038L111.379 4.55382C104.615 4.6666 97.3163 4.77938 89.5822 4.80945L65.2524 4.94479C48.3787 4.99741 30.385 4.94479 12.3839 4.84705C11.322 4.86373 10.2799 5.13621 9.34568 5.6414C8.41149 6.14659 7.61281 6.8696 7.01733 7.74917C6.43469 8.64459 6.08294 9.67047 5.99353 10.7351C5.90412 11.7997 6.07983 12.87 6.50496 13.8501C6.93008 14.8302 7.59138 15.6896 8.42972 16.3516C9.26805 17.0136 10.2573 17.4574 11.309 17.6435C13.4737 17.8841 15.7511 17.7187 17.9458 17.7713C26.8073 17.7187 35.5261 17.636 43.9592 17.4706C52.3923 17.3051 60.5473 17.1397 68.2814 17.1021C76.0156 17.0646 83.3137 17.027 90.0783 17.0495C103.607 17.1322 114.829 17.3277 122.698 17.3352L135.07 17.3503Z" fill="#4B4336"/>
<defs>
<linearGradient id="paint0_linear_106_42" x1="34.4343" y1="-5.73763" x2="104.463" y2="24.1018" gradientUnits="userSpaceOnUse">
<stop stop-color="#755720"/>
<stop offset="0.4" stop-color="#815100"/>
<stop offset="0.677083" stop-color="#875D1A"/>
<stop offset="0.848958" stop-color="#A67E36"/>
<stop offset="1" stop-color="#815100"/>
</linearGradient>
</defs>
</svg>
