<svg width="165" height="25" viewBox="0 0 165 25" fill="none" xmlns="http://www.w3.org/2000/svg">
<path d="M152.702 0.399658L11.7664 1.12737C10.257 1.13467 8.76373 1.43931 7.37198 2.02388C5.98022 2.60845 4.7172 3.46151 3.65503 4.53435C1.50987 6.70105 0.313017 9.63142 0.327772 12.6808C0.342526 15.7302 1.56768 18.6489 3.7337 20.7947C5.89973 22.9405 8.8292 24.1378 11.8777 24.123L152.83 23.4038C155.826 23.3071 158.666 22.0442 160.745 19.8842C162.824 17.7242 163.978 14.8377 163.961 11.8392C163.945 8.8408 162.759 5.96733 160.655 3.83068C158.552 1.69403 155.699 0.462977 152.702 0.399658V0.399658ZM152.787 19.8338L13.17 20.5529C11.1135 20.5631 9.13715 19.7557 7.67574 18.3083C6.21434 16.8609 5.38759 14.8921 5.37737 12.8349C5.36716 10.7778 6.17432 8.80081 7.62128 7.33895C9.06823 5.8771 11.0365 5.05009 13.093 5.03988L152.71 4.32073C154.767 4.31051 156.743 5.11791 158.205 6.56532C159.666 8.01273 160.493 9.98157 160.503 12.0387C160.513 14.0959 159.706 16.0729 158.259 17.5347C156.812 18.9966 154.844 19.8236 152.787 19.8338V19.8338Z" fill="url(#paint0_linear_105_16)"/>
<path d="M152.7 0.494177L137.491 0.64828L97.3942 1.37599C89.1009 1.47872 80.1143 1.59002 70.6056 1.5729C61.097 1.55578 51.0748 1.49585 40.6931 1.45304L24.911 1.39311H16.8573C14.1613 1.46161 11.4226 1.15339 8.82073 1.85542C6.24106 2.58452 4.00691 4.21206 2.52156 6.44427C1.06754 8.70603 0.475016 11.4154 0.852108 14.0778C1.2292 16.7403 2.55077 19.1784 4.57564 20.9471C6.60637 22.696 9.1965 23.6589 11.8762 23.661C34.0003 23.3271 56.1244 23.0532 76.8706 22.8991L106.766 22.7621C116.275 22.6936 125.261 22.7621 133.563 22.7621L145.468 22.8648L150.988 22.9248C151.845 22.9625 152.702 22.9454 153.556 22.8734C154.392 22.8561 155.22 22.7118 156.012 22.4453C157.477 22.0129 158.837 21.2835 160.007 20.3025C161.178 19.3216 162.134 18.1101 162.817 16.7435C163.877 14.6024 164.226 12.1781 163.812 9.82472C163.397 7.47131 162.242 5.31194 160.514 3.66185C159.372 2.60064 158.027 1.78222 156.56 1.25613C155.944 1.07634 155.405 0.879435 154.934 0.768138C154.463 0.656841 154.035 0.673962 153.702 0.639717L152.7 0.494177ZM152.7 0.322954L153.719 0.408565L154.968 0.51986C155.456 0.639718 156.004 0.819503 156.629 0.99929C158.152 1.53682 159.552 2.37533 160.745 3.46495C162.34 4.97691 163.481 6.90418 164.04 9.02978C164.693 11.6842 164.44 14.4806 163.321 16.9747C162.636 18.4474 161.654 19.7623 160.436 20.8365C159.218 21.9106 157.79 22.7208 156.243 23.2158C155.418 23.5167 154.553 23.6955 153.676 23.7466C152.784 23.8478 151.886 23.8935 150.988 23.8836L145.468 24.0035L133.563 24.2261C125.261 24.3545 116.275 24.4915 106.766 24.5257L76.8706 24.6884C56.1244 24.7569 34.0003 24.6884 11.8762 24.6028C8.97499 24.5733 6.18197 23.4971 4.01076 21.5721C1.8658 19.6676 0.478464 17.0539 0.102809 14.2097C-0.272845 11.3655 0.388328 8.48107 1.96525 6.0847C3.56749 3.73618 5.96162 2.04337 8.70946 1.31606C11.3969 0.656841 14.1699 0.89656 16.8402 0.810947L24.8939 0.733892L40.6846 0.511296C51.0577 0.357193 61.0798 0.126038 70.5885 0.0832319C80.0972 0.0404254 89.0838 -0.0195005 97.3771 0.00618339L137.483 0.322954H152.7Z" fill="black"/>
<path d="M152.785 19.9279L138.672 20.0906C129.711 20.1848 116.899 20.5443 101.528 20.8012C93.8249 20.8954 85.523 21.0067 76.7076 20.9895C67.8922 20.9724 58.6146 20.9039 49.0033 20.8526C39.3919 20.8012 29.4724 20.7669 19.3903 20.8526C16.8227 20.8526 14.3664 21.0495 11.7731 20.8097C10.4513 20.5864 9.20392 20.044 8.13906 19.2294C7.0742 18.4149 6.22403 17.3528 5.66227 16.1353C5.11069 14.8953 4.87566 13.5378 4.97831 12.1845C5.08096 10.8312 5.51807 9.52464 6.25036 8.38214C6.98266 7.23964 7.98721 6.29701 9.17377 5.63891C10.3603 4.98081 11.6917 4.62787 13.0484 4.61178C33.5891 4.28645 54.0443 4.02105 73.2499 3.87551L100.954 3.74709C109.753 3.68717 118.072 3.74709 125.774 3.74709L146.752 3.96968L151.279 4.02106C152.73 3.93975 154.182 4.13737 155.558 4.60322C156.742 5.07872 157.797 5.82521 158.64 6.78274C159.483 7.74027 160.09 8.88216 160.411 10.1167C160.908 12.1137 160.6 14.2257 159.555 15.9983C158.811 17.3096 157.694 18.3703 156.346 19.0461C155.235 19.589 154.021 19.8895 152.785 19.9279V19.9279ZM152.785 19.7567C153.998 19.6925 155.184 19.3777 156.269 18.8321C157.566 18.1646 158.633 17.1239 159.333 15.8442C159.873 14.8943 160.199 13.8379 160.289 12.7487C160.379 11.6595 160.23 10.5639 159.853 9.5383C159.475 8.5127 158.879 7.58187 158.104 6.81081C157.33 6.03975 156.397 5.44704 155.37 5.07409C154.057 4.67741 152.68 4.53503 151.313 4.65459L146.786 4.74876L125.809 5.18538C118.106 5.3138 109.795 5.44223 100.989 5.47647L73.2842 5.63058C54.07 5.6905 33.5806 5.63058 13.0826 5.51928C11.8735 5.53828 10.6868 5.84855 9.62304 6.42381C8.55928 6.99907 7.64982 7.82237 6.97174 8.82393C6.30829 9.84355 5.90775 11.0117 5.80594 12.224C5.70413 13.4363 5.90421 14.655 6.3883 15.771C6.8724 16.8871 7.62541 17.8657 8.58003 18.6195C9.53465 19.3733 10.6611 19.8787 11.8587 20.0906C14.3236 20.3646 16.9169 20.1762 19.416 20.2361C29.5067 20.1762 39.4347 20.082 49.0375 19.8937C58.6403 19.7053 67.9264 19.517 76.7333 19.4742C85.5401 19.4314 93.8506 19.3886 101.553 19.4143C116.959 19.5084 129.737 19.731 138.698 19.7396L152.785 19.7567Z" fill="#4B4336"/>
<defs>
<linearGradient id="paint0_linear_105_16" x1="38.1914" y1="-6.53356" x2="117.933" y2="27.4447" gradientUnits="userSpaceOnUse">
<stop stop-color="#755720"/>
<stop offset="0.4" stop-color="#815100"/>
<stop offset="0.677083" stop-color="#875D1A"/>
<stop offset="0.848958" stop-color="#A67E36"/>
<stop offset="1" stop-color="#815100"/>
</linearGradient>
</defs>
</svg>
